<svg width="31" height="20" viewBox="0 0 31 20" fill="none" xmlns="http://www.w3.org/2000/svg">
<path d="M30.5265 13.4882L28.89 11.8516C28.556 11.5177 28.0216 11.5177 27.6876 11.8516C27.554 11.9852 27.4872 12.1188 27.4538 12.2858C27.4204 11.5177 27.22 10.8163 26.9528 10.1483C27.2868 9.71412 27.5874 9.21313 27.7878 8.71215C28.0884 8.01078 28.222 7.2426 28.222 6.47443C28.222 4.83789 27.554 3.36834 26.4853 2.33298C25.4165 1.29762 23.947 0.629639 22.3438 0.629639C21.2417 0.629639 20.2063 0.930228 19.3045 1.46461C18.6699 1.86539 18.1022 2.36638 17.6346 2.96756C16.2986 2.06579 14.6955 1.53141 12.9921 1.53141C10.9548 1.53141 9.08448 2.26618 7.64833 3.50194C6.37917 4.6041 5.44401 6.07364 5.00982 7.81038C3.70727 7.97738 2.53831 8.57856 1.66994 9.44693C0.634578 10.4823 0 11.9184 0 13.4882C0 15.0579 0.634578 16.4941 1.66994 17.5294C2.7053 18.5648 4.14145 19.1994 5.7112 19.1994H20.9077C22.7112 19.1994 24.3143 18.4646 25.5167 17.2956C26.6857 16.1267 27.4204 14.4901 27.4204 12.6866V12.6532C27.4538 12.7868 27.5206 12.9204 27.6542 13.0206L29.3242 14.6905C29.6582 15.0245 30.1925 15.0245 30.5265 14.6905C30.8605 14.3566 30.8605 13.8222 30.5265 13.4882ZM24.3477 16.0933C23.4794 16.9617 22.277 17.496 20.9745 17.496H5.7446C4.64244 17.496 3.64047 17.0619 2.9057 16.3271C2.17092 15.5923 1.73674 14.5903 1.73674 13.4882C1.73674 12.386 2.17092 11.3841 2.9057 10.6493C3.64047 9.91451 4.64244 9.48032 5.7446 9.48032C5.87819 9.48032 6.04519 9.44693 6.14538 9.38013C6.34578 9.24653 6.47937 9.04614 6.51277 8.81235C6.74656 7.2426 7.54813 5.83985 8.68369 4.87129C9.81925 3.90272 11.3222 3.30154 12.9253 3.30154C14.2947 3.30154 15.5639 3.73573 16.6326 4.4705C17.4342 5.03828 18.1356 5.77306 18.6031 6.67482C18.4695 6.74162 18.336 6.77502 18.2024 6.84182C17.3674 7.20921 16.6326 7.77698 15.998 8.44496C15.6974 8.81235 15.7308 9.34673 16.0648 9.64732C16.4322 9.94791 16.9666 9.91451 17.2672 9.58052C17.7348 9.07954 18.2692 8.67875 18.8703 8.37816C19.4715 8.11097 20.1395 7.94398 20.8409 7.94398C22.1768 7.94398 23.3458 8.47836 24.2141 9.34673C25.0825 10.2151 25.6169 11.4175 25.6169 12.72C25.7171 14.056 25.1827 15.2249 24.3477 16.0933ZM26.1847 8.07757C26.1179 8.24457 26.0511 8.41156 25.9509 8.54516C25.8173 8.37816 25.6837 8.24457 25.5501 8.11097C24.3811 6.94201 22.7446 6.20724 20.9411 6.20724C20.7741 6.20724 20.5737 6.20724 20.4067 6.24064C20.0393 5.43907 19.5383 4.70429 18.9371 4.10312C19.2711 3.63553 19.7053 3.26814 20.1729 2.96756C20.8075 2.56677 21.5422 2.36638 22.3104 2.36638C23.446 2.36638 24.5147 2.83396 25.2495 3.56873C26.0177 4.33691 26.4519 5.37227 26.4519 6.50783C26.4853 7.07561 26.3851 7.60999 26.1847 8.07757Z" fill="#454545"/>
</svg>
